<?xml version="1.0" encoding="UTF-8" standalone="no"?>
<!DOCTYPE svg PUBLIC "-//W3C//DTD SVG 1.1//EN" "http://www.w3.org/Graphics/SVG/1.1/DTD/svg11.dtd">
<svg width="100%" height="100%" viewBox="0 0 819 123" version="1.1" xmlns="http://www.w3.org/2000/svg" xmlns:xlink="http://www.w3.org/1999/xlink" xml:space="preserve" xmlns:serif="http://www.serif.com/" style="fill-rule:evenodd;clip-rule:evenodd;stroke-linejoin:round;stroke-miterlimit:2;">
    <g transform="matrix(1,0,0,1,-12.3433,-53.5725)">
        <g transform="matrix(4.16667,0,0,4.16667,-39.0871,-169.646)">
            <path d="M37.388,57.644C34.24,54.942 30.182,53.573 25.326,53.573L12.343,53.573L12.343,53.955C12.343,55.762 14.078,57.349 16.055,57.349L24.936,57.349C28.698,57.349 32.7,58.615 34.897,60.501C37.242,62.511 38.53,65.263 38.53,68.251L38.53,68.568C37.913,66.626 36.762,64.888 35.202,63.544C32.85,61.503 29.229,60.283 25.517,60.283L16.24,60.283L16.24,60.666C16.24,62.474 17.975,64.059 19.953,64.059L25.517,64.059C30.93,64.059 35.169,67.375 35.169,71.606C35.169,73.46 34.307,75.244 32.74,76.629C31.17,77.986 29.192,78.805 27.104,78.963C24.689,79.146 16.704,79.151 16.624,79.151L16.233,79.151L16.233,79.533C16.233,81.446 18.329,82.927 20.131,82.927L25.852,82.927C30.229,82.927 34.321,81.481 37.384,78.855C40.577,76.116 42.336,72.351 42.336,68.248C42.336,64.146 40.581,60.381 37.388,57.644Z" style="fill:white;fill-rule:nonzero;"/>
        </g>
        <g transform="matrix(4.16667,0,0,4.16667,-39.0871,-169.646)">
            <path d="M53.536,80.138L53.536,56.309L62.305,56.309C64.915,56.309 67.135,56.778 68.965,57.715C70.794,58.652 72.189,60.013 73.148,61.798C74.13,63.561 74.621,65.691 74.621,68.19C74.621,70.712 74.13,72.865 73.148,74.65C72.189,76.434 70.783,77.795 68.931,78.733C67.102,79.67 64.893,80.138 62.305,80.138L53.536,80.138ZM57.854,76.624L62.037,76.624C64.781,76.624 66.834,75.921 68.195,74.516C69.578,73.11 70.27,71.001 70.27,68.19C70.27,62.612 67.526,59.824 62.037,59.824L57.854,59.824L57.854,76.624ZM85.255,80.372C83.782,80.372 82.477,80.027 81.339,79.335C80.201,78.621 79.32,77.617 78.695,76.323C78.093,75.007 77.791,73.467 77.791,71.704C77.791,69.919 78.104,68.369 78.729,67.052C79.353,65.714 80.223,64.676 81.339,63.94C82.477,63.181 83.782,62.802 85.255,62.802C86.683,62.802 87.921,63.159 88.969,63.873C90.04,64.565 90.766,65.535 91.145,66.785L90.743,67.019L90.743,63.237L94.86,63.237L94.86,80.138L90.743,80.138L90.743,76.323L91.145,76.457C90.766,77.706 90.04,78.677 88.969,79.368C87.921,80.038 86.683,80.372 85.255,80.372ZM86.393,77.159C87.776,77.159 88.847,76.68 89.605,75.72C90.364,74.761 90.743,73.4 90.743,71.637C90.743,69.83 90.364,68.458 89.605,67.521C88.847,66.562 87.776,66.082 86.393,66.082C84.987,66.082 83.894,66.573 83.113,67.554C82.332,68.536 81.941,69.919 81.941,71.704C81.941,73.445 82.332,74.795 83.113,75.754C83.894,76.691 84.987,77.159 86.393,77.159ZM97.308,66.383L97.308,63.237L109.222,63.237L109.222,66.383L97.308,66.383ZM109.222,76.658L109.222,79.971C108.776,80.127 108.33,80.227 107.883,80.272C107.459,80.339 107.002,80.372 106.511,80.372C104.615,80.372 103.142,79.837 102.093,78.766C101.067,77.695 100.554,76.156 100.554,74.147L100.554,59.121L104.737,57.715L104.737,73.947C104.737,74.705 104.86,75.308 105.106,75.754C105.351,76.178 105.674,76.479 106.076,76.658C106.5,76.836 106.969,76.925 107.482,76.925C107.772,76.925 108.051,76.903 108.318,76.858C108.586,76.814 108.887,76.747 109.222,76.658ZM118.656,80.372C117.184,80.372 115.879,80.027 114.741,79.335C113.603,78.621 112.722,77.617 112.097,76.323C111.494,75.007 111.193,73.467 111.193,71.704C111.193,69.919 111.506,68.369 112.13,67.052C112.755,65.714 113.625,64.676 114.741,63.94C115.879,63.181 117.184,62.802 118.656,62.802C120.084,62.802 121.323,63.159 122.371,63.873C123.442,64.565 124.167,65.535 124.547,66.785L124.145,67.019L124.145,63.237L128.261,63.237L128.261,80.138L124.145,80.138L124.145,76.323L124.547,76.457C124.167,77.706 123.442,78.677 122.371,79.368C121.323,80.038 120.084,80.372 118.656,80.372ZM119.794,77.159C121.178,77.159 122.249,76.68 123.007,75.72C123.766,74.761 124.145,73.4 124.145,71.637C124.145,69.83 123.766,68.458 123.007,67.521C122.249,66.562 121.178,66.082 119.794,66.082C118.389,66.082 117.295,66.573 116.515,67.554C115.734,68.536 115.343,69.919 115.343,71.704C115.343,73.445 115.734,74.795 116.515,75.754C117.295,76.691 118.389,77.159 119.794,77.159ZM139.009,80.372C135.93,80.372 133.498,79.67 131.714,78.264L132.885,75.319C133.777,75.988 134.748,76.49 135.797,76.825C136.845,77.159 137.938,77.327 139.076,77.327C140.103,77.327 140.884,77.159 141.419,76.825C141.954,76.49 142.222,76.022 142.222,75.419C142.222,74.906 142.033,74.504 141.653,74.214C141.274,73.902 140.627,73.634 139.712,73.411L136.901,72.775C135.361,72.441 134.201,71.883 133.42,71.102C132.662,70.299 132.282,69.284 132.282,68.056C132.282,67.03 132.573,66.126 133.153,65.346C133.733,64.542 134.547,63.918 135.596,63.471C136.644,63.025 137.86,62.802 139.244,62.802C140.448,62.802 141.609,62.992 142.724,63.371C143.84,63.728 144.81,64.252 145.636,64.944L144.431,67.822C143.583,67.175 142.713,66.695 141.821,66.383C140.95,66.071 140.08,65.915 139.21,65.915C138.251,65.915 137.503,66.093 136.968,66.45C136.432,66.807 136.165,67.298 136.165,67.923C136.165,68.413 136.321,68.804 136.633,69.094C136.968,69.384 137.537,69.618 138.34,69.797L141.185,70.5C142.858,70.857 144.074,71.437 144.833,72.24C145.614,73.021 146.004,74.058 146.004,75.352C146.004,76.892 145.379,78.119 144.13,79.034C142.88,79.926 141.174,80.372 139.009,80.372ZM154.041,80.138L147.414,63.237L151.732,63.237L156.484,76.323L155.647,76.323L160.433,63.237L163.479,63.237L168.231,76.323L167.461,76.323L172.214,63.237L176.263,63.237L169.637,80.138L165.989,80.138L160.835,66.517L162.742,66.517L157.689,80.138L154.041,80.138ZM178.867,80.138L178.867,63.237L183.051,63.237L183.051,80.138L178.867,80.138ZM178.666,55.573L183.318,55.573L183.318,59.69L178.666,59.69L178.666,55.573ZM185.486,66.383L185.486,63.237L196.63,63.237L196.63,66.383L185.486,66.383ZM197.233,59.087C196.608,58.909 196.05,58.82 195.559,58.82C195.069,58.82 194.611,58.92 194.187,59.121C193.786,59.299 193.462,59.612 193.217,60.058C192.994,60.482 192.882,61.062 192.882,61.798L192.882,80.138L188.699,80.138L188.699,61.597C188.699,59.589 189.201,58.05 190.205,56.979C191.231,55.908 192.692,55.372 194.589,55.372C195.057,55.372 195.515,55.395 195.961,55.439C196.407,55.484 196.831,55.584 197.233,55.74L197.233,59.087ZM196.859,66.383L196.859,63.237L208.774,63.237L208.774,66.383L196.859,66.383ZM208.774,76.658L208.774,79.971C208.328,80.127 207.882,80.227 207.435,80.272C207.011,80.339 206.554,80.372 206.063,80.372C204.167,80.372 202.694,79.837 201.645,78.766C200.619,77.695 200.106,76.156 200.106,74.147L200.106,59.121L204.289,57.715L204.289,73.947C204.289,74.705 204.412,75.308 204.658,75.754C204.903,76.178 205.226,76.479 205.628,76.658C206.052,76.836 206.521,76.925 207.034,76.925C207.324,76.925 207.603,76.903 207.87,76.858C208.138,76.814 208.439,76.747 208.774,76.658Z" style="fill:white;fill-rule:nonzero;"/>
        </g>
    </g>
</svg>
