<?xml version="1.0" encoding="UTF-8" standalone="no"?>
<!DOCTYPE svg PUBLIC "-//W3C//DTD SVG 1.1//EN" "http://www.w3.org/Graphics/SVG/1.1/DTD/svg11.dtd">
<!-- Created with Vectornator (http://vectornator.io/) -->
<svg height="100%" stroke-miterlimit="10" style="fill-rule:nonzero;clip-rule:evenodd;stroke-linecap:round;stroke-linejoin:round;" version="1.1" viewBox="0 0 140 140" width="100%" xml:space="preserve" xmlns="http://www.w3.org/2000/svg" xmlns:xlink="http://www.w3.org/1999/xlink">
<defs/>
<g id="Untitled">
<path d="M94.176 28.704L94.176 25.808L93.064 25.808L93.064 25.304L95.904 25.304L95.904 25.808L94.792 25.808L94.792 28.704L94.176 28.704ZM96.424 28.704L96.424 25.304L96.912 25.304L98.168 27.712L98.016 27.712L99.272 25.304L99.744 25.304L99.744 28.704L99.208 28.704L99.208 26.152L99.336 26.168L98.288 28.168L97.888 28.168L96.824 26.168L96.976 26.152L96.976 28.704L96.424 28.704Z" fill="#ffffff" fill-rule="nonzero" opacity="1" stroke="none"/>
<path d="M85.2473 31.381C80.3143 27.1463 73.9542 25 66.3444 25L46 25L46 25.5995C46 28.4313 48.7176 30.9174 51.8171 30.9174L65.7339 30.9174C71.6286 30.9174 77.901 32.9018 81.3434 35.8575C85.0186 39.007 87.0359 43.3197 87.0359 48.002C87.0359 48.1645 87.0359 48.3304 87.0359 48.4996C86.0701 45.4558 84.2658 42.7314 81.8212 40.6258C78.1358 37.4283 72.4616 35.5158 66.6446 35.5158L52.107 35.5158L52.107 36.1153C52.107 38.9491 54.8246 41.4331 57.9241 41.4331L66.6446 41.4331C75.1262 41.4331 81.7701 46.6291 81.7701 53.2599C81.7701 56.1656 80.4185 58.9614 77.9622 61.1317C75.5024 63.2569 72.4027 64.5406 69.1315 64.7889C65.346 65.0746 52.8339 65.0826 52.7073 65.0826L52.0947 65.0826L52.0947 65.6822C52.0947 68.6798 55.38 71 58.2038 71L67.1693 71C74.0277 71 80.4409 68.7338 85.2412 64.619C90.2436 60.3264 93 54.427 93 47.998C93 41.569 90.2497 35.6696 85.2473 31.381Z" fill="#ffffff" fill-rule="nonzero" opacity="1" stroke="none"/>
<path d="M35.1545 95L35.1545 84.32L39.0845 84.32C40.2545 84.32 41.2495 84.53 42.0695 84.95C42.8895 85.37 43.5145 85.98 43.9445 86.78C44.3845 87.57 44.6045 88.525 44.6045 89.645C44.6045 90.775 44.3845 91.74 43.9445 92.54C43.5145 93.34 42.8845 93.95 42.0545 94.37C41.2345 94.79 40.2445 95 39.0845 95L35.1545 95ZM37.0895 93.425L38.9645 93.425C40.1945 93.425 41.1145 93.11 41.7245 92.48C42.3445 91.85 42.6545 90.905 42.6545 89.645C42.6545 87.145 41.4245 85.895 38.9645 85.895L37.0895 85.895L37.0895 93.425ZM49.3706 95.105C48.7106 95.105 48.1256 94.95 47.6156 94.64C47.1056 94.32 46.7106 93.87 46.4306 93.29C46.1606 92.7 46.0256 92.01 46.0256 91.22C46.0256 90.42 46.1656 89.725 46.4456 89.135C46.7256 88.535 47.1156 88.07 47.6156 87.74C48.1256 87.4 48.7106 87.23 49.3706 87.23C50.0106 87.23 50.5656 87.39 51.0356 87.71C51.5156 88.02 51.8406 88.455 52.0106 89.015L51.8306 89.12L51.8306 87.425L53.6756 87.425L53.6756 95L51.8306 95L51.8306 93.29L52.0106 93.35C51.8406 93.91 51.5156 94.345 51.0356 94.655C50.5656 94.955 50.0106 95.105 49.3706 95.105ZM49.8806 93.665C50.5006 93.665 50.9806 93.45 51.3206 93.02C51.6606 92.59 51.8306 91.98 51.8306 91.19C51.8306 90.38 51.6606 89.765 51.3206 89.345C50.9806 88.915 50.5006 88.7 49.8806 88.7C49.2506 88.7 48.7606 88.92 48.4106 89.36C48.0606 89.8 47.8856 90.42 47.8856 91.22C47.8856 92 48.0606 92.605 48.4106 93.035C48.7606 93.455 49.2506 93.665 49.8806 93.665ZM54.7728 88.835L54.7728 87.425L60.1128 87.425L60.1128 88.835L54.7728 88.835ZM60.1128 93.44L60.1128 94.925C59.9128 94.995 59.7128 95.04 59.5128 95.06C59.3228 95.09 59.1178 95.105 58.8978 95.105C58.0478 95.105 57.3878 94.865 56.9178 94.385C56.4578 93.905 56.2278 93.215 56.2278 92.315L56.2278 85.58L58.1028 84.95L58.1028 92.225C58.1028 92.565 58.1578 92.835 58.2678 93.035C58.3778 93.225 58.5228 93.36 58.7028 93.44C58.8928 93.52 59.1028 93.56 59.3328 93.56C59.4628 93.56 59.5878 93.55 59.7078 93.53C59.8278 93.51 59.9628 93.48 60.1128 93.44ZM64.3413 95.105C63.6813 95.105 63.0963 94.95 62.5863 94.64C62.0763 94.32 61.6813 93.87 61.4013 93.29C61.1313 92.7 60.9963 92.01 60.9963 91.22C60.9963 90.42 61.1363 89.725 61.4163 89.135C61.6963 88.535 62.0863 88.07 62.5863 87.74C63.0963 87.4 63.6813 87.23 64.3413 87.23C64.9813 87.23 65.5363 87.39 66.0063 87.71C66.4863 88.02 66.8113 88.455 66.9813 89.015L66.8013 89.12L66.8013 87.425L68.6463 87.425L68.6463 95L66.8013 95L66.8013 93.29L66.9813 93.35C66.8113 93.91 66.4863 94.345 66.0063 94.655C65.5363 94.955 64.9813 95.105 64.3413 95.105ZM64.8513 93.665C65.4713 93.665 65.9513 93.45 66.2913 93.02C66.6313 92.59 66.8013 91.98 66.8013 91.19C66.8013 90.38 66.6313 89.765 66.2913 89.345C65.9513 88.915 65.4713 88.7 64.8513 88.7C64.2213 88.7 63.7313 88.92 63.3813 89.36C63.0313 89.8 62.8563 90.42 62.8563 91.22C62.8563 92 63.0313 92.605 63.3813 93.035C63.7313 93.455 64.2213 93.665 64.8513 93.665ZM73.4635 95.105C72.0835 95.105 70.9935 94.79 70.1935 94.16L70.7185 92.84C71.1185 93.14 71.5535 93.365 72.0235 93.515C72.4935 93.665 72.9835 93.74 73.4935 93.74C73.9535 93.74 74.3035 93.665 74.5435 93.515C74.7835 93.365 74.9035 93.155 74.9035 92.885C74.9035 92.655 74.8185 92.475 74.6485 92.345C74.4785 92.205 74.1885 92.085 73.7785 91.985L72.5185 91.7C71.8285 91.55 71.3085 91.3 70.9585 90.95C70.6185 90.59 70.4485 90.135 70.4485 89.585C70.4485 89.125 70.5785 88.72 70.8385 88.37C71.0985 88.01 71.4635 87.73 71.9335 87.53C72.4035 87.33 72.9485 87.23 73.5685 87.23C74.1085 87.23 74.6285 87.315 75.1285 87.485C75.6285 87.645 76.0635 87.88 76.4335 88.19L75.8935 89.48C75.5135 89.19 75.1235 88.975 74.7235 88.835C74.3335 88.695 73.9435 88.625 73.5535 88.625C73.1235 88.625 72.7885 88.705 72.5485 88.865C72.3085 89.025 72.1885 89.245 72.1885 89.525C72.1885 89.745 72.2585 89.92 72.3985 90.05C72.5485 90.18 72.8035 90.285 73.1635 90.365L74.4385 90.68C75.1885 90.84 75.7335 91.1 76.0735 91.46C76.4235 91.81 76.5985 92.275 76.5985 92.855C76.5985 93.545 76.3185 94.095 75.7585 94.505C75.1985 94.905 74.4335 95.105 73.4635 95.105ZM80.2006 95L77.2306 87.425L79.1656 87.425L81.2956 93.29L80.9206 93.29L83.0656 87.425L84.4306 87.425L86.5606 93.29L86.2156 93.29L88.3456 87.425L90.1606 87.425L87.1906 95L85.5556 95L83.2456 88.895L84.1006 88.895L81.8356 95L80.2006 95ZM91.3278 95L91.3278 87.425L93.2028 87.425L93.2028 95L91.3278 95ZM91.2378 83.99L93.3228 83.99L93.3228 85.835L91.2378 85.835L91.2378 83.99ZM94.2942 88.835L94.2942 87.425L99.2892 87.425L99.2892 88.835L94.2942 88.835ZM99.5592 85.565C99.2792 85.485 99.0292 85.445 98.8092 85.445C98.5892 85.445 98.3842 85.49 98.1942 85.58C98.0142 85.66 97.8692 85.8 97.7592 86C97.6592 86.19 97.6092 86.45 97.6092 86.78L97.6092 95L95.7342 95L95.7342 86.69C95.7342 85.79 95.9592 85.1 96.4092 84.62C96.8692 84.14 97.5242 83.9 98.3742 83.9C98.5842 83.9 98.7892 83.91 98.9892 83.93C99.1892 83.95 99.3792 83.995 99.5592 84.065L99.5592 85.565ZM99.3919 88.835L99.3919 87.425L104.732 87.425L104.732 88.835L99.3919 88.835ZM104.732 93.44L104.732 94.925C104.532 94.995 104.332 95.04 104.132 95.06C103.942 95.09 103.737 95.105 103.517 95.105C102.667 95.105 102.007 94.865 101.537 94.385C101.077 93.905 100.847 93.215 100.847 92.315L100.847 85.58L102.722 84.95L102.722 92.225C102.722 92.565 102.777 92.835 102.887 93.035C102.997 93.225 103.142 93.36 103.322 93.44C103.512 93.52 103.722 93.56 103.952 93.56C104.082 93.56 104.207 93.55 104.327 93.53C104.447 93.51 104.582 93.48 104.732 93.44Z" fill="#ffffff" fill-rule="nonzero" opacity="1" stroke="none"/>
</g>
</svg>
