<?xml version="1.0" encoding="UTF-8" standalone="no"?>
<!DOCTYPE svg PUBLIC "-//W3C//DTD SVG 1.1//EN" "http://www.w3.org/Graphics/SVG/1.1/DTD/svg11.dtd">
<!-- Created with Vectornator (http://vectornator.io/) -->
<svg height="100%" stroke-miterlimit="10" style="fill-rule:nonzero;clip-rule:evenodd;stroke-linecap:round;stroke-linejoin:round;" version="1.1" viewBox="0 0 1026 348" width="100%" xml:space="preserve" xmlns="http://www.w3.org/2000/svg" xmlns:vectornator="http://vectornator.io" xmlns:xlink="http://www.w3.org/1999/xlink">
<defs/>
<g id="Untitled" vectornator:layerName="Untitled">
<g opacity="1">
<path d="M31.5206 13.5208L31.5206 140.521L13.5206 140.521L13.5206 206.521L31.5206 206.521L31.5206 333.521L158.521 333.521L158.521 315.521L224.521 315.521L224.521 333.521L351.521 333.521L351.521 206.521L369.521 206.521L369.521 140.521L351.521 140.521L351.521 13.5208L224.521 13.5208L224.521 31.5208L158.521 31.5208L158.521 13.5208L31.5206 13.5208Z" fill="none" opacity="1" stroke="#ffffff" stroke-linecap="square" stroke-linejoin="miter" stroke-width="12"/>
<g opacity="1">
<path d="M162.609 133.904L162.609 213.137C162.609 219.224 161.189 224.77 158.348 229.776C155.508 234.78 151.416 238.77 146.072 241.746C140.729 244.723 134.304 246.21 126.797 246.21L79.5199 246.21L79.5199 100.832L126.797 100.832C134.304 100.832 140.729 102.319 146.072 105.295C151.416 108.272 155.508 112.262 158.348 117.266C161.189 122.27 162.609 127.817 162.609 133.904ZM109.347 221.659C111.241 221.727 112.966 221.761 114.521 221.761C121.556 221.761 126.256 221.05 128.623 219.63C131.396 218.007 132.782 213.577 132.782 206.34L132.782 140.702C132.782 133.465 131.396 129.035 128.623 127.411C126.256 125.99 121.556 125.281 114.521 125.281C112.966 125.281 111.241 125.315 109.347 125.383L109.347 221.659Z" fill="#ffffff" fill-rule="nonzero" opacity="1" stroke="none"/>
<path d="M267.205 100.832L303.525 100.832L303.525 246.21L273.698 246.21L273.698 131.368L254.421 152.571L254.421 246.21L224.595 246.21L224.595 152.571L205.32 131.368L205.32 246.21L175.594 246.21L175.594 100.832L211.813 100.832L239.508 128.121L267.205 100.832Z" fill="#ffffff" fill-rule="nonzero" opacity="1" stroke="none"/>
</g>
<g opacity="1">
<path d="M544.989 63.6017L544.989 124.655C544.989 129.345 543.895 133.618 541.704 137.477C539.516 141.332 536.364 144.407 532.245 146.699C528.129 148.994 523.18 150.138 517.393 150.138L480.964 150.138L480.964 38.1162L517.393 38.1162C523.18 38.1162 528.129 39.2636 532.245 41.5583C536.364 43.8497 539.516 46.9249 541.704 50.7806C543.895 54.6396 544.989 58.9122 544.989 63.6017ZM503.948 131.223C505.405 131.273 506.736 131.299 507.934 131.299C513.354 131.299 516.976 130.753 518.8 129.659C520.938 128.408 522.005 124.992 522.005 119.416L522.005 68.8382C522.005 63.2648 520.938 59.8494 518.8 58.5987C516.976 57.5047 513.354 56.9577 507.934 56.9577C506.736 56.9577 505.405 56.9843 503.948 57.0344L503.948 131.223Z" fill="#ffffff" fill-rule="nonzero" opacity="1" stroke="none"/>
<path d="M618.471 38.1162L618.471 99.3267L597.285 114.726L597.285 150.138L574.304 150.138L574.304 114.726L553.118 99.3267L553.118 38.1162L576.102 38.1162L576.102 87.8364L585.794 94.794L595.487 87.8364L595.487 38.1162L618.471 38.1162Z" fill="#ffffff" fill-rule="nonzero" opacity="1" stroke="none"/>
<path d="M667.17 38.1162L690.078 38.1162L690.078 150.138L667.17 150.138L667.17 93.6199L650.6 71.6533L650.6 150.138L628.007 150.138L628.007 37.9628L650.13 38.0395L650.677 38.6665L667.17 60.4765L667.17 38.1162Z" fill="#ffffff" fill-rule="nonzero" opacity="1" stroke="none"/>
<path d="M729.241 38.1162L766.998 38.1162L766.998 150.138L744.017 150.138L744.017 115.977L724.705 114.726L724.629 114.726L724.629 150.138L701.645 150.138L701.645 116.837L693.203 97.4523L701.645 97.4523L701.645 63.6017C701.645 58.9122 702.742 54.6396 704.93 50.7806C707.118 46.9249 710.257 43.8497 714.349 41.5583C718.442 39.2636 723.405 38.1162 729.241 38.1162ZM724.629 97.4523L744.017 97.4523L744.017 57.0344L743.937 57.0344C741.749 56.931 739.768 56.8776 737.997 56.8776C733.097 56.8776 729.762 57.3479 727.991 58.2851C725.749 59.4859 724.629 62.9246 724.629 68.6047L724.629 97.4523Z" fill="#ffffff" fill-rule="nonzero" opacity="1" stroke="none"/>
<path d="M849.081 38.1162L877.065 38.1162L877.065 150.138L854.084 150.138L854.084 61.6472L839.228 77.9871L839.228 150.138L816.248 150.138L816.248 77.9871L801.395 61.6472L801.395 150.138L778.488 150.138L778.488 38.1162L806.398 38.1162L827.738 59.1457L849.081 38.1162Z" fill="#ffffff" fill-rule="nonzero" opacity="1" stroke="none"/>
<path d="M949.452 54.9264C949.662 55.6535 949.855 56.6842 950.039 58.0116C950.222 59.3424 950.312 60.4231 950.312 61.2569L950.312 126.53C950.312 131.223 949.218 135.482 947.03 139.311C944.839 143.143 941.7 146.205 937.608 148.497C933.519 150.791 928.556 151.935 922.719 151.935L914.978 151.935C909.194 151.935 904.244 150.791 900.125 148.497C896.009 146.205 892.867 143.143 890.706 139.311C888.545 135.482 887.461 131.223 887.461 126.53L887.461 61.7272C887.461 57.0344 888.545 52.7751 890.706 48.9461C892.867 45.1138 896.009 42.0519 900.125 39.7605C904.244 37.4658 909.194 36.3185 914.978 36.3185L922.719 36.3185C929.963 36.3185 935.877 38.0528 940.463 41.5183C945.049 44.9837 948.044 49.4531 949.452 54.9264ZM927.328 74.0781C927.328 69.1784 927.198 65.3728 926.938 62.6645C926.678 59.9528 925.961 58.065 924.79 56.9977C923.616 55.927 921.648 55.3934 918.887 55.3934C916.125 55.3934 914.144 55.927 912.946 56.9977C911.749 58.065 911.019 59.9528 910.758 62.6645C910.498 65.3728 910.368 69.1784 910.368 74.0781L910.368 114.179C910.368 119.079 910.498 122.884 910.758 125.593C911.019 128.304 911.736 130.192 912.906 131.259C914.08 132.33 916.072 132.864 918.887 132.864C921.702 132.864 923.696 132.33 924.867 131.259C926.041 130.192 926.745 128.304 926.978 125.593C927.212 122.884 927.328 119.079 927.328 114.179L927.328 74.0781Z" fill="#ffffff" fill-rule="nonzero" opacity="1" stroke="none"/>
<path d="M1025.36 63.6017L1025.36 124.655C1025.36 129.345 1024.26 133.618 1022.08 137.477C1019.88 141.332 1016.73 144.407 1012.62 146.699C1008.5 148.994 1003.55 150.138 997.765 150.138L961.336 150.138L961.336 38.1162L997.765 38.1162C1003.55 38.1162 1008.5 39.2636 1012.62 41.5583C1016.73 43.8497 1019.88 46.9249 1022.08 50.7806C1024.26 54.6396 1025.36 58.9122 1025.36 63.6017ZM984.316 131.223C985.777 131.273 987.105 131.299 988.305 131.299C993.725 131.299 997.348 130.753 999.172 129.659C1001.31 128.408 1002.37 124.992 1002.37 119.416L1002.37 68.8382C1002.37 63.2648 1001.31 59.8494 999.172 58.5987C997.348 57.5047 993.725 56.9577 988.305 56.9577C987.105 56.9577 985.777 56.9843 984.316 57.0344L984.316 131.223Z" fill="#ffffff" fill-rule="nonzero" opacity="1" stroke="none"/>
<path d="M514.5 273.901L507.7 258.425L542.721 258.345L542.721 310.72L508.483 310.72C502.696 310.72 497.76 309.576 493.668 307.281C489.579 304.99 486.437 301.915 484.249 298.059C482.061 294.2 480.967 289.927 480.967 285.238L480.967 224.184C480.967 219.494 482.061 215.222 484.249 211.363C486.437 207.507 489.579 204.432 493.668 202.141C497.76 199.846 502.696 198.698 508.483 198.698L542.721 198.698L539.986 242.322L521.695 240.991L521.695 218.087L520.13 218.087C516.482 218.087 513.51 218.244 511.218 218.557C508.924 218.867 507.243 219.481 506.175 220.392C505.108 221.306 504.468 222.62 504.261 224.341C504.051 226.062 503.947 228.326 503.947 231.142L503.947 275.622C504.001 282.346 505.198 286.749 507.543 288.833C509.838 290.814 513.773 291.805 519.347 291.805L519.817 291.805L519.817 273.667L514.5 273.901Z" fill="#ffffff" fill-rule="nonzero" opacity="1" stroke="none"/>
<path d="M582.041 198.698L619.801 198.698L619.801 310.72L596.817 310.72L596.817 276.559L577.509 275.308L577.429 275.308L577.429 310.72L554.448 310.72L554.448 277.42L546.006 258.035L554.448 258.035L554.448 224.184C554.448 219.494 555.542 215.222 557.73 211.363C559.918 207.507 563.06 204.432 567.149 202.141C571.241 199.846 576.204 198.698 582.041 198.698ZM577.429 258.035L596.817 258.035L596.817 217.617L596.74 217.617C594.549 217.513 592.571 217.46 590.797 217.46C585.9 217.46 582.565 217.93 580.791 218.867C578.549 220.068 577.429 223.507 577.429 229.187L577.429 258.035Z" fill="#ffffff" fill-rule="nonzero" opacity="1" stroke="none"/>
<path d="M701.881 198.698L729.868 198.698L729.868 310.72L706.884 310.72L706.884 222.229L692.032 238.569L692.032 310.72L669.048 310.72L669.048 238.569L654.195 222.229L654.195 310.72L631.291 310.72L631.291 198.698L659.198 198.698L680.541 219.728L701.881 198.698Z" fill="#ffffff" fill-rule="nonzero" opacity="1" stroke="none"/>
<path d="M799.83 218.087L764.732 215.976L764.732 258.035L799.83 258.035L799.83 277.42L764.732 275.308L764.732 293.366L799.83 291.255L799.83 310.643L764.732 310.643L741.828 310.72L741.828 277.42L733.307 258.035L741.828 258.035L741.828 198.698L799.83 198.698L799.83 218.087Z" fill="#ffffff" fill-rule="nonzero" opacity="1" stroke="none"/>
<path d="M865.654 242.322L847.359 240.991L847.359 217.617L846.892 217.617C845.642 217.567 844.494 217.54 843.45 217.54C838.554 217.54 835.112 217.957 833.134 218.791C831.153 219.625 830.082 222.179 829.929 226.452C829.875 227.129 829.835 227.963 829.809 228.954C829.785 229.944 829.759 230.945 829.732 231.962C829.705 232.979 829.692 233.826 829.692 234.504L829.692 235.598L869.326 263.975L869.326 285.158C869.326 289.851 868.232 294.123 866.044 297.979C863.853 301.834 860.714 304.91 856.622 307.204C852.532 309.496 847.593 310.643 841.809 310.643L808.509 310.643L808.509 270.696L826.8 272.026L829.068 291.725C830.996 291.725 832.74 291.752 834.305 291.805C835.399 291.855 836.416 291.882 837.353 291.882C839.855 291.882 841.966 291.712 843.687 291.375C845.405 291.035 846.579 289.914 847.202 288.013C847.83 286.108 848.143 282.97 848.143 278.594L848.143 277.186L808.509 248.262L808.509 224.184C808.509 219.494 809.59 215.222 811.751 211.363C813.916 207.507 817.054 204.432 821.173 202.141C825.289 199.846 830.239 198.698 836.026 198.698L868.389 198.698L865.654 242.322Z" fill="#ffffff" fill-rule="nonzero" opacity="1" stroke="none"/>
</g>
</g>
</g>
</svg>
