<?xml version="1.0" encoding="UTF-8" standalone="no"?>
<!DOCTYPE svg PUBLIC "-//W3C//DTD SVG 1.1//EN" "http://www.w3.org/Graphics/SVG/1.1/DTD/svg11.dtd">
<!-- Created with Vectornator (http://vectornator.io/) -->
<svg height="100%" stroke-miterlimit="10" style="fill-rule:nonzero;clip-rule:evenodd;stroke-linecap:round;stroke-linejoin:round;" version="1.1" viewBox="0 0 640 203" width="100%" xml:space="preserve" xmlns="http://www.w3.org/2000/svg" xmlns:xlink="http://www.w3.org/1999/xlink">
<defs/>
<g id="Untitled">
<g opacity="1">
<path d="M41.6588 17.1788L41.6588 109.971C41.6588 142.979 54.8505 159.483 81.2422 159.483C107.626 159.483 120.826 142.979 120.826 109.971L120.826 52.7788L145.305 52.7788L145.305 111.191C145.305 133.341 139.413 150.837 127.638 163.671C115.863 176.508 100.401 182.921 81.2422 182.921C62.0839 182.921 46.6172 176.508 34.838 163.671C23.063 150.837 17.1797 133.341 17.1797 111.191L17.1797 17.1788L41.6588 17.1788Z" fill="#ffffff" fill-rule="nonzero" opacity="1" stroke="#ffffff" stroke-linecap="butt" stroke-linejoin="miter" stroke-width="6.66667"/>
<path d="M351.651 51.7255L351.651 129.296C351.651 146.771 347.067 160.451 337.905 170.33C328.742 180.209 316.667 185.151 301.692 185.151C285.663 185.151 272.705 178.563 262.842 165.388C252.801 178.563 239.846 185.151 223.992 185.151C209.017 185.151 196.951 180.209 187.784 170.33C178.621 160.451 174.042 146.771 174.042 129.296L174.042 51.7255L196.438 51.7255L196.438 133.717C196.438 142.767 198.984 150.042 204.092 155.542C209.205 161.042 215.805 163.796 223.909 163.796C232.009 163.796 238.655 161.042 243.847 155.542C249.042 150.042 251.647 142.767 251.647 133.717L251.647 51.7255L274.042 51.7255L274.042 133.717C274.042 142.767 276.605 150.042 281.738 155.542C286.867 161.042 293.505 163.796 301.647 163.796C309.784 163.796 316.413 161.042 321.551 155.542C326.68 150.042 329.251 142.767 329.251 133.717L329.251 51.7255L351.651 51.7255Z" fill="#ffffff" fill-rule="nonzero" opacity="1" stroke="#ffffff" stroke-linecap="butt" stroke-linejoin="miter" stroke-width="6.66667"/>
<path d="M514.901 185.069L514.901 112.448C514.901 93.648 519.868 78.9772 529.793 68.4272C539.722 57.8813 552.68 52.6063 568.676 52.6063C584.672 52.6063 597.588 57.8813 607.434 68.4272C617.272 78.9772 622.197 93.648 622.197 112.448L622.197 185.069L599.801 185.069L599.801 108.231C599.801 98.2147 596.897 90.0855 591.093 83.8439C585.293 77.6063 577.818 74.4855 568.676 74.4855C559.53 74.4855 552.018 77.6063 546.126 83.8439C540.234 90.0855 537.297 98.2147 537.297 108.231L537.297 185.069L514.901 185.069Z" fill="#ffffff" fill-rule="nonzero" opacity="1" stroke="#ffffff" stroke-linecap="butt" stroke-linejoin="miter" stroke-width="6.66667"/>
<path d="M488.801 53.103L488.801 94.0197C488.801 126.32 474.559 145.995 446.092 153.053L446.092 185.066L423.697 185.066L423.697 153.053C395.576 145.995 381.513 126.32 381.513 94.0197L381.513 53.103L403.905 53.103L403.905 97.9489C403.905 107.974 406.847 116.107 412.738 122.341C418.63 128.582 426.138 131.699 435.288 131.699C444.426 131.699 451.897 128.582 457.701 122.341C463.501 116.107 466.405 107.974 466.405 97.9489L466.405 53.103L488.801 53.103Z" fill="#ffffff" fill-rule="nonzero" opacity="1" stroke="#ffffff" stroke-linecap="butt" stroke-linejoin="miter" stroke-width="6.66667"/>
<path d="M78.3089 32.5022C76.8714 32.5022 75.6964 32.0772 74.788 31.2272C73.8797 30.3813 73.4255 29.198 73.4255 27.6772L73.4255 13.723L68.8464 13.723L68.8464 28.0855C68.8464 29.7272 69.2339 31.1563 70.0089 32.3689C70.7797 33.5814 71.8755 34.523 73.2922 35.198C74.7089 35.8689 76.3839 36.2022 78.3089 36.2022C80.263 36.2022 81.9422 35.8689 83.3547 35.198C84.763 34.523 85.8547 33.5814 86.6297 32.3689C87.4047 31.1563 87.788 29.7188 87.788 28.0647L87.788 13.723L83.213 13.723L83.213 27.6772C83.213 29.1855 82.7589 30.3647 81.8589 31.2188C80.9547 32.073 79.7755 32.5022 78.3089 32.5022Z" fill="#ffffff" fill-rule="nonzero" opacity="1" stroke="none"/>
<path d="M105.446 29.5092C105.476 30.4592 105.688 31.3425 106.088 32.155C106.488 32.9675 107.071 33.6759 107.838 34.28C108.605 34.8842 109.542 35.355 110.655 35.6967C111.767 36.0342 113.055 36.205 114.521 36.205C116.501 36.205 118.184 35.9134 119.567 35.33C120.951 34.7467 122.005 33.9342 122.73 32.8967C123.459 31.8592 123.821 30.655 123.821 29.2842C123.821 28.08 123.576 27.0717 123.088 26.2634C122.601 25.4592 121.892 24.8009 120.971 24.2925C120.051 23.7842 118.93 23.3925 117.613 23.1217L114.196 22.3884C112.976 22.1175 112.076 21.7634 111.492 21.33C110.909 20.8967 110.617 20.3217 110.617 19.6009C110.617 18.7592 110.984 18.0675 111.713 17.5259C112.446 16.9842 113.459 16.7134 114.746 16.7134C115.626 16.7134 116.388 16.8467 117.026 17.1217C117.663 17.3925 118.167 17.7592 118.542 18.2175C118.913 18.68 119.121 19.2092 119.159 19.805L123.455 19.805C123.438 18.6134 123.092 17.5217 122.405 16.53C121.721 15.5384 120.734 14.7467 119.446 14.1508C118.159 13.5508 116.596 13.255 114.767 13.255C113.042 13.255 111.526 13.5342 110.209 14.0967C108.892 14.6634 107.867 15.4425 107.138 16.4384C106.405 17.4342 106.038 18.5967 106.038 19.9259C106.038 21.055 106.271 22.0217 106.738 22.8384C107.209 23.6509 107.913 24.3259 108.855 24.8592C109.801 25.3967 110.955 25.8134 112.326 26.1134L115.621 26.8259C116.867 27.08 117.788 27.4342 118.376 27.8842C118.967 28.33 119.263 28.9342 119.263 29.6925C119.263 30.6009 118.88 31.33 118.113 31.88C117.346 32.43 116.238 32.705 114.788 32.705C113.838 32.705 113.001 32.5675 112.284 32.2967C111.567 32.0259 111.001 31.6509 110.584 31.1675C110.171 30.6884 109.938 30.1342 109.884 29.5092L105.446 29.5092Z" fill="#ffffff" fill-rule="nonzero" opacity="1" stroke="none"/>
<path d="M158.059 32.2377L147.521 32.2377L147.521 26.296L157.43 26.296L157.43 22.9169L147.521 22.9169L147.521 17.2627L158.059 17.2627L158.059 13.721L142.963 13.721L142.963 35.7752L158.059 35.7752L158.059 32.2377Z" fill="#ffffff" fill-rule="nonzero" opacity="1" stroke="none"/>
<path d="M213.967 35.7785L218.196 35.7785L224.405 13.741L219.438 13.741L215.901 29.7535L215.676 29.7535L211.526 13.741L207.496 13.741L203.346 29.7535L203.121 29.7535L199.563 13.741L194.596 13.741L200.821 35.7785L205.055 35.7785L209.409 20.3743L209.613 20.3743L213.967 35.7785Z" fill="#ffffff" fill-rule="nonzero" opacity="1" stroke="none"/>
<path d="M262.367 35.7752L262.367 13.721L257.788 13.721L257.788 22.7335L247.838 22.7335L247.838 13.721L243.242 13.721L243.242 35.7752L247.838 35.7752L247.838 26.3377L257.788 26.3377L257.788 35.7752L262.367 35.7752Z" fill="#ffffff" fill-rule="nonzero" opacity="1" stroke="none"/>
<path d="M284.601 35.7752L286.455 30.1002L294.367 30.1002L296.222 35.7752L301.042 35.7752L293.167 13.721L287.838 13.721L279.942 35.7752L284.601 35.7752ZM290.542 17.9335L293.413 26.8669L287.409 26.8669L290.322 17.9335L290.542 17.9335Z" fill="#ffffff" fill-rule="nonzero" opacity="1" stroke="none"/>
<path d="M326.88 35.7752L326.88 17.3252L333.572 17.3252L333.572 13.721L315.609 13.721L315.609 17.3252L322.301 17.3252L322.301 35.7752L326.88 35.7752Z" fill="#ffffff" fill-rule="nonzero" opacity="1" stroke="none"/>
<path d="M376.234 35.7752L380.813 35.7752L380.813 27.3127L388.647 13.721L383.68 13.721L378.655 23.0794L378.472 23.0794L373.447 13.721L368.38 13.721L376.234 27.396L376.234 35.7752Z" fill="#ffffff" fill-rule="nonzero" opacity="1" stroke="none"/>
<path d="M415.176 36.2044C417.288 36.2044 419.092 35.7919 420.584 34.9627C422.076 34.1335 423.222 32.9627 424.013 31.4419C424.809 29.9252 425.205 28.1419 425.205 26.0919L425.205 23.4252C425.205 21.3669 424.809 19.5794 424.013 18.0669C423.222 16.5544 422.076 15.3794 420.576 14.546C419.076 13.7127 417.276 13.296 415.176 13.296C412.026 13.296 409.567 14.2085 407.801 16.0335C406.03 17.8544 405.142 20.321 405.142 23.4252L405.142 26.0919C405.142 28.1419 405.542 29.9252 406.334 31.4419C407.126 32.9627 408.276 34.1335 409.784 34.9627C411.288 35.7919 413.084 36.2044 415.176 36.2044ZM415.176 32.5835C413.505 32.5835 412.192 32.0044 411.238 30.8544C410.28 29.7002 409.801 28.121 409.801 26.1127L409.801 23.3669C409.801 21.371 410.28 19.8002 411.238 18.646C412.192 17.4919 413.505 16.9169 415.176 16.9169C416.842 16.9169 418.155 17.4919 419.109 18.646C420.067 19.8002 420.547 21.371 420.547 23.3669L420.547 26.1127C420.547 28.1085 420.067 29.6835 419.109 30.8419C418.155 32.0044 416.842 32.5835 415.176 32.5835Z" fill="#ffffff" fill-rule="nonzero" opacity="1" stroke="none"/>
<path d="M453.176 32.5022C451.738 32.5022 450.567 32.0772 449.659 31.2272C448.751 30.3813 448.297 29.198 448.297 27.6772L448.297 13.723L443.717 13.723L443.717 28.0855C443.717 29.7272 444.105 31.1563 444.876 32.3689C445.651 33.5814 446.747 34.523 448.163 35.198C449.58 35.8689 451.251 36.2022 453.176 36.2022C455.13 36.2022 456.813 35.8689 458.222 35.198C459.634 34.523 460.726 33.5814 461.501 32.3689C462.272 31.1563 462.659 29.7188 462.659 28.0647L462.659 13.723L458.08 13.723L458.08 27.6772C458.08 29.1855 457.63 30.3647 456.726 31.2188C455.826 32.073 454.642 32.5022 453.176 32.5022Z" fill="#ffffff" fill-rule="nonzero" opacity="1" stroke="none"/>
<path d="M506.38 35.7752L506.38 21.0044L506.563 21.0044L516.959 35.7752L520.784 35.7752L520.784 13.721L516.451 13.721L516.451 28.4127L516.268 28.4127L505.888 13.721L502.047 13.721L502.047 35.7752L506.38 35.7752Z" fill="#ffffff" fill-rule="nonzero" opacity="1" stroke="none"/>
<path d="M554.901 32.2377L544.363 32.2377L544.363 26.296L554.272 26.296L554.272 22.9169L544.363 22.9169L544.363 17.2627L554.901 17.2627L554.901 13.721L539.805 13.721L539.805 35.7752L554.901 35.7752L554.901 32.2377Z" fill="#ffffff" fill-rule="nonzero" opacity="1" stroke="none"/>
<path d="M588.672 32.2377L578.134 32.2377L578.134 26.296L588.043 26.296L588.043 22.9169L578.134 22.9169L578.134 17.2627L588.672 17.2627L588.672 13.721L573.576 13.721L573.576 35.7752L588.672 35.7752L588.672 32.2377Z" fill="#ffffff" fill-rule="nonzero" opacity="1" stroke="none"/>
<path d="M621.713 24.771C621.713 26.1419 621.563 27.3002 621.263 28.2502C620.968 29.2002 620.534 29.9669 619.972 30.5585C619.409 31.1502 618.73 31.5752 617.926 31.8419C617.126 32.1044 616.218 32.2377 615.201 32.2377L611.947 32.2377L611.947 17.2627L615.201 17.2627C616.747 17.2627 617.997 17.5627 618.947 18.1669C619.893 18.771 620.593 19.6335 621.043 20.7502C621.488 21.871 621.713 23.2085 621.713 24.771ZM626.393 24.7085C626.393 22.3502 626.001 20.3502 625.222 18.7169C624.443 17.0835 623.276 15.8419 621.722 14.9919C620.168 14.146 618.226 13.721 615.893 13.721L607.347 13.721L607.347 35.7752L615.893 35.7752C618.213 35.7752 620.151 35.3502 621.701 34.496C623.255 33.6419 624.426 32.3877 625.213 30.7419C625.997 29.0919 626.393 27.0835 626.393 24.7085Z" fill="#ffffff" fill-rule="nonzero" opacity="1" stroke="none"/>
</g>
</g>
</svg>
