<?xml version="1.0" encoding="UTF-8" standalone="no"?>
<!DOCTYPE svg PUBLIC "-//W3C//DTD SVG 1.1//EN" "http://www.w3.org/Graphics/SVG/1.1/DTD/svg11.dtd">
<svg width="100%" height="100%" viewBox="0 0 824 348" version="1.1" xmlns="http://www.w3.org/2000/svg" xmlns:xlink="http://www.w3.org/1999/xlink" xml:space="preserve" xmlns:serif="http://www.serif.com/" style="fill-rule:evenodd;clip-rule:evenodd;stroke-linejoin:round;stroke-miterlimit:2;">
    <g id="Untitled">
        <g transform="matrix(0.12015,0,0,-0.12015,-19.3942,351.83)">
            <path d="M1205,2830C1127,2769 967,2690 919,2690C887,2690 878,2694 871,2713C859,2743 781,2817 747,2829C680,2854 607,2836 551,2779C487,2715 464,2627 494,2557C518,2499 573,2460 714,2401L743,2389L719,2364C684,2327 688,2275 728,2239L759,2211L711,2176C618,2108 541,2004 540,1946C540,1918 459,1778 441,1773C426,1769 424,1756 428,1677C430,1626 439,1563 448,1537C464,1490 464,1488 445,1474C415,1454 291,1350 253,1314C179,1243 233,1140 368,1091C403,1078 420,1075 420,1083C420,1090 407,1101 391,1108C336,1133 278,1181 264,1217C245,1262 257,1298 300,1322C317,1331 340,1355 351,1375C363,1394 378,1410 384,1410C391,1410 405,1419 415,1430C425,1441 443,1450 455,1450C472,1450 479,1457 483,1478C486,1493 484,1509 479,1515C467,1527 468,1614 481,1669C486,1694 510,1752 534,1799C558,1847 579,1903 582,1926C590,1981 613,2027 656,2073C705,2125 793,2190 814,2190C823,2190 833,2197 836,2205C840,2213 853,2220 866,2220C880,2220 890,2226 890,2234C890,2252 933,2267 938,2251C946,2226 978,2241 995,2280C1029,2355 1155,2447 1212,2438C1223,2436 1239,2425 1247,2413C1261,2392 1259,2390 1188,2357C1118,2324 1049,2267 1063,2254C1066,2250 1083,2260 1101,2274C1144,2310 1229,2353 1246,2346C1253,2343 1262,2345 1265,2350C1274,2364 1307,2362 1313,2348C1317,2338 1319,2338 1319,2347C1320,2353 1312,2365 1302,2372C1292,2379 1278,2400 1271,2418C1263,2436 1249,2455 1239,2460C1213,2474 1164,2472 1123,2455C1103,2447 1085,2441 1084,2443C1082,2445 1084,2460 1089,2476C1111,2554 1031,2598 953,2550C884,2508 837,2413 840,2321C843,2253 843,2253 810,2240C785,2230 776,2230 756,2244C723,2265 716,2293 735,2330C745,2350 758,2360 774,2360C804,2360 811,2369 799,2391C793,2404 793,2410 800,2410C805,2410 810,2415 810,2420C810,2426 800,2428 788,2425C735,2412 572,2490 539,2543C463,2669 629,2863 757,2796C805,2772 850,2730 850,2711C850,2667 922,2646 986,2670C1004,2677 1016,2677 1025,2670C1033,2663 1067,2676 1141,2714C1260,2777 1376,2813 1505,2829C1679,2850 1718,2839 1602,2802C1520,2775 1366,2689 1362,2667C1358,2645 1376,2646 1408,2669C1462,2707 1602,2771 1663,2785C1800,2817 1978,2794 2050,2734C2082,2706 2090,2680 2065,2680C2039,2680 1937,2641 1921,2625C1894,2598 1918,2597 1992,2621C2074,2648 2203,2652 2278,2631C2326,2618 2327,2616 2333,2543C2336,2504 2334,2490 2324,2490C2302,2490 2296,2468 2314,2455C2323,2448 2370,2439 2418,2435C2531,2427 2618,2403 2632,2377C2637,2366 2640,2342 2637,2324C2627,2266 2698,2164 2721,2202C2732,2220 2756,2196 2771,2153C2783,2117 2781,2079 2760,1880C2755,1828 2750,1742 2750,1689C2750,1584 2739,1538 2680,1390C2656,1332 2637,1263 2630,1212C2617,1114 2600,1064 2559,996C2525,941 2427,823 2330,720L2268,655L2266,585C2264,508 2247,465 2197,413C2156,369 2131,369 2163,413C2214,480 2229,530 2200,530C2195,530 2176,509 2158,483C2129,441 2125,438 2122,458C2118,483 2100,489 2100,465C2100,456 2079,429 2054,405C2029,380 2011,356 2015,350C2023,337 2076,337 2103,351C2119,360 2125,360 2128,351C2134,333 2179,338 2211,362C2227,374 2255,407 2272,434C2301,478 2305,493 2308,576C2312,653 2315,668 2327,663C2358,651 2581,912 2634,1022C2649,1053 2666,1117 2675,1175C2685,1241 2706,1312 2735,1385C2793,1530 2798,1556 2804,1745C2806,1833 2814,1937 2821,1977C2831,2032 2831,2062 2822,2110C2808,2185 2792,2212 2735,2252C2698,2278 2691,2289 2685,2328C2676,2387 2663,2415 2636,2429C2591,2452 2526,2470 2462,2476C2382,2484 2368,2496 2377,2555C2382,2592 2379,2601 2354,2629C2331,2654 2311,2663 2255,2675C2217,2683 2167,2690 2145,2690C2110,2690 2103,2694 2090,2723C2059,2790 1873,2850 1749,2834C1719,2830 1700,2831 1700,2837C1700,2854 1650,2870 1596,2870C1522,2870 1368,2843 1282,2814C1242,2801 1207,2790 1203,2790C1199,2790 1214,2808 1235,2830C1285,2881 1270,2881 1205,2830ZM1064,2525C1072,2504 1062,2482 1019,2425C999,2398 974,2358 964,2338C947,2301 899,2273 878,2286C872,2290 870,2315 873,2347C880,2410 916,2477 962,2514C999,2543 1054,2549 1064,2525Z" style="fill:white;fill-rule:nonzero;"/>
            <path d="M1219,2284C1174,2271 1141,2245 1153,2234C1156,2231 1172,2236 1190,2245C1223,2262 1248,2256 1217,2239C1177,2216 1218,2170 1280,2170C1305,2169 1320,2163 1332,2146C1347,2125 1348,2118 1334,2069C1307,1968 1279,1756 1296,1772C1299,1776 1317,1847 1336,1932C1380,2127 1376,2117 1411,2129C1435,2137 1442,2136 1447,2125C1455,2104 1472,2106 1591,2144C1727,2188 1839,2212 1881,2208L1915,2205L1871,2158C1822,2104 1825,2099 1887,2135C1942,2168 1954,2205 1919,2233C1899,2249 1885,2251 1834,2247C1800,2244 1735,2232 1690,2220C1645,2208 1606,2201 1604,2203C1602,2205 1620,2221 1645,2238C1689,2269 1702,2290 1678,2290C1671,2290 1603,2260 1528,2224C1453,2188 1383,2160 1373,2162C1360,2165 1370,2174 1409,2194C1447,2214 1459,2225 1452,2232C1444,2240 1424,2238 1382,2226C1319,2209 1230,2204 1246,2219C1251,2224 1275,2232 1300,2237C1331,2243 1346,2251 1348,2264C1356,2301 1301,2310 1219,2284Z" style="fill:white;fill-rule:nonzero;"/>
            <path d="M1248,1988C1229,1954 1230,1714 1250,1678C1264,1653 1265,1660 1265,1778C1265,1848 1269,1929 1273,1958C1283,2014 1271,2028 1248,1988Z" style="fill:white;fill-rule:nonzero;"/>
            <path d="M783,1920C765,1909 744,1903 735,1906C726,1910 708,1899 689,1879C670,1859 650,1846 639,1848C626,1850 620,1845 620,1832C620,1819 614,1813 603,1814C592,1814 585,1808 585,1797C585,1787 579,1776 572,1771C565,1767 562,1756 565,1748C569,1739 567,1729 561,1725C545,1716 547,1685 564,1671C575,1661 587,1665 619,1687C641,1702 659,1721 660,1728C660,1734 667,1740 675,1740C684,1740 690,1749 690,1765C690,1783 695,1790 709,1790C720,1790 738,1804 749,1823C779,1869 817,1910 830,1910C843,1910 838,1932 824,1937C819,1939 800,1931 783,1920ZM610,1725C610,1720 605,1722 600,1730C595,1738 590,1750 590,1755C590,1761 595,1758 600,1750C605,1742 610,1731 610,1725ZM585,1700C588,1695 586,1690 581,1690C575,1690 570,1695 570,1700C570,1706 572,1710 574,1710C577,1710 582,1706 585,1700Z" style="fill:white;fill-rule:nonzero;"/>
            <path d="M840,1903C818,1892 804,1876 802,1863C798,1834 805,1834 842,1865C858,1879 878,1891 886,1891C913,1894 918,1895 926,1903C930,1907 926,1910 917,1910C909,1910 896,1912 888,1915C881,1918 859,1912 840,1903Z" style="fill:white;fill-rule:nonzero;"/>
            <path d="M1173,1864C1170,1856 1170,1820 1174,1785C1178,1745 1177,1719 1170,1715C1155,1706 1158,1678 1180,1635C1191,1614 1199,1587 1198,1576C1197,1564 1204,1543 1213,1529C1230,1504 1243,1495 1303,1471L1332,1460L1310,1427C1247,1332 1219,1229 1240,1166C1257,1113 1267,1122 1266,1193C1265,1263 1288,1337 1301,1304C1305,1294 1309,1266 1309,1242C1310,1191 1333,1132 1355,1124C1364,1120 1373,1120 1375,1122C1378,1125 1371,1161 1360,1204C1338,1291 1344,1357 1380,1417C1405,1459 1405,1463 1380,1455C1367,1451 1360,1453 1360,1462C1360,1470 1347,1489 1330,1505C1314,1521 1300,1538 1300,1543C1300,1548 1289,1561 1275,1572C1243,1597 1211,1700 1203,1803C1197,1876 1187,1899 1173,1864ZM1322,1348C1315,1341 1310,1340 1310,1346C1310,1352 1313,1360 1317,1363C1320,1367 1326,1368 1329,1365C1331,1362 1328,1354 1322,1348Z" style="fill:white;fill-rule:nonzero;"/>
            <path d="M960,1851C960,1841 984,1830 1003,1830C1010,1830 1006,1837 996,1845C974,1862 960,1864 960,1851Z" style="fill:white;fill-rule:nonzero;"/>
            <path d="M720,1730C720,1725 734,1713 751,1705C780,1689 781,1688 765,1670C756,1660 736,1650 721,1648C682,1644 688,1616 729,1610C759,1606 764,1600 776,1560C789,1516 789,1515 760,1485C733,1457 731,1452 744,1434C758,1416 759,1416 768,1440C779,1467 815,1503 868,1539C900,1561 902,1562 915,1544C928,1525 929,1525 936,1544C953,1588 876,1675 783,1716C722,1743 720,1744 720,1730ZM851,1649C894,1619 886,1610 833,1629C773,1649 777,1647 785,1659C795,1676 819,1672 851,1649ZM880,1570C880,1565 873,1560 865,1560C857,1560 850,1565 850,1570C850,1576 857,1580 865,1580C873,1580 880,1576 880,1570Z" style="fill:white;fill-rule:nonzero;"/>
            <path d="M1610,1505C1595,1487 1558,1486 1513,1502C1475,1516 1461,1508 1481,1483C1494,1466 1494,1466 1468,1483C1433,1505 1433,1505 1427,1473C1420,1438 1455,1364 1481,1357C1506,1350 1505,1358 1474,1403C1449,1440 1448,1466 1472,1442C1489,1425 1540,1427 1540,1444C1540,1460 1626,1474 1664,1464C1679,1461 1710,1465 1738,1475C1783,1491 1788,1492 1819,1476C1836,1466 1874,1456 1903,1453C1932,1450 1958,1442 1962,1436C1972,1421 1982,1434 1974,1453C1971,1462 1949,1474 1926,1480C1904,1485 1861,1497 1832,1506C1784,1520 1774,1520 1724,1505C1674,1491 1666,1490 1645,1504C1625,1517 1620,1517 1610,1505Z" style="fill:white;fill-rule:nonzero;"/>
            <path d="M1640,1423C1612,1412 1590,1387 1590,1363C1590,1335 1616,1332 1623,1359C1628,1381 1688,1401 1720,1393C1734,1389 1740,1379 1740,1361C1740,1327 1730,1314 1699,1307C1667,1299 1593,1221 1584,1185C1577,1157 1593,1130 1618,1130C1637,1130 1737,1206 1756,1235C1763,1246 1772,1285 1776,1321C1782,1381 1780,1390 1761,1409C1740,1430 1678,1437 1640,1423Z" style="fill:white;fill-rule:nonzero;"/>
            <path d="M1407,1373C1397,1363 1399,1295 1409,1266C1417,1248 1424,1243 1439,1247C1464,1253 1465,1263 1445,1284C1437,1292 1430,1316 1430,1339C1430,1377 1422,1389 1407,1373Z" style="fill:white;fill-rule:nonzero;"/>
            <path d="M1875,1370C1878,1365 1883,1360 1886,1360C1888,1360 1890,1365 1890,1370C1890,1376 1885,1380 1879,1380C1874,1380 1872,1376 1875,1370Z" style="fill:white;fill-rule:nonzero;"/>
            <path d="M595,1335C579,1285 582,1287 546,1309C513,1330 476,1335 446,1324C417,1313 430,1300 470,1300C497,1300 517,1293 530,1280C553,1257 548,1239 511,1206C490,1187 489,1187 455,1206C428,1220 415,1222 393,1214C357,1202 357,1178 393,1166C417,1157 423,1159 431,1173C442,1191 470,1197 470,1180C470,1156 507,1151 542,1170L577,1189L589,1149C603,1104 650,1046 691,1024C734,1002 750,1007 711,1031C632,1079 605,1145 613,1265C617,1318 615,1350 609,1350C604,1350 597,1343 595,1335Z" style="fill:white;fill-rule:nonzero;"/>
            <path d="M1852,1328C1847,1321 1825,1275 1805,1227C1765,1133 1702,1038 1625,952C1552,871 1546,870 1494,926C1461,962 1447,971 1439,963C1430,954 1435,941 1460,911C1536,815 1571,815 1662,911L1729,981L1756,964L1783,946L1741,932C1717,924 1696,912 1693,904C1687,887 1718,854 1753,841C1789,827 1787,817 1745,801C1710,789 1696,760 1725,760C1733,760 1740,756 1740,751C1740,746 1749,738 1761,735C1780,729 1779,726 1745,703C1703,674 1704,661 1750,645L1783,634L1746,611C1679,569 1705,546 1835,534L1905,528L1873,512C1833,493 1825,473 1850,458C1867,447 1863,439 1785,359C1703,274 1680,233 1680,173C1680,135 1698,100 1719,100C1735,100 1737,106 1733,143C1726,205 1756,258 1851,352C1910,410 1937,430 1957,430C2012,430 2134,510 2112,532C2105,539 2083,532 2040,509C1988,480 1978,477 1970,490C1957,510 1957,540 1970,540C1976,540 1980,544 1980,549C1980,554 1942,561 1896,565C1790,574 1778,582 1830,605C1866,621 1890,645 1890,664C1890,667 1865,670 1835,670C1805,670 1780,673 1780,676C1780,686 1824,719 1838,720C1851,720 1855,740 1841,740C1836,740 1815,747 1794,756C1762,769 1759,773 1773,781C1782,787 1790,798 1790,805C1790,813 1795,820 1800,820C1824,820 1806,840 1763,861L1716,884L1740,899C1806,943 1807,944 1773,977L1743,1007L1767,1046C1809,1113 1880,1290 1880,1327C1880,1343 1866,1344 1852,1328Z" style="fill:white;fill-rule:nonzero;"/>
            <path d="M410,1053C411,1048 422,1032 435,1015C463,981 470,1001 444,1038C429,1059 410,1068 410,1053Z" style="fill:white;fill-rule:nonzero;"/>
            <path d="M725,990C722,985 721,976 724,971C727,967 721,955 710,945C692,929 688,929 656,944C620,961 545,966 554,951C557,947 574,940 592,936C641,926 612,907 547,906C490,906 464,918 450,955C443,973 441,974 435,957C424,930 455,892 499,880C537,870 539,868 538,829C538,797 544,782 568,757C584,739 601,715 605,703C608,690 615,680 620,680C636,680 640,698 629,723C620,744 623,753 651,793C669,819 681,843 677,846C673,850 652,836 629,815C588,778 572,778 569,815C565,856 570,880 584,880C591,880 609,889 623,900C637,911 663,920 683,920C720,920 734,931 743,967C748,991 736,1007 725,990Z" style="fill:white;fill-rule:nonzero;"/>
            <path d="M930,973C930,968 941,953 955,940C969,927 980,921 980,927C980,932 969,947 955,960C941,973 930,979 930,973Z" style="fill:white;fill-rule:nonzero;"/>
            <path d="M780,953C781,933 828,875 836,883C843,890 798,970 788,970C783,970 780,962 780,953Z" style="fill:white;fill-rule:nonzero;"/>
            <path d="M1570,798C1570,792 1580,776 1592,763C1612,742 1612,737 1601,698C1591,663 1567,635 1477,550C1305,387 1204,287 1220,296C1249,310 1496,499 1552,549C1649,637 1676,726 1621,781C1590,811 1570,818 1570,798Z" style="fill:white;fill-rule:nonzero;"/>
            <path d="M625,670C622,665 621,656 625,651C628,645 608,620 580,594C492,512 490,423 574,337C609,301 631,290 730,258C909,200 928,198 1129,202L1313,205L1329,155C1342,113 1349,104 1372,102L1399,99L1380,149C1362,195 1362,199 1378,202C1392,205 1389,210 1365,225C1338,243 1318,245 1110,245L885,245L770,284C619,335 604,343 582,388C541,468 547,507 610,575C638,606 656,665 640,675C635,678 629,676 625,670Z" style="fill:white;fill-rule:nonzero;"/>
        </g>
        <g transform="matrix(0.975758,0,0,0.695519,13.5295,-16.3594)">
            <path d="M424.896,51.726L407.041,51.726L407.041,119.852L395.031,119.852L395.031,51.726L377.417,51.726L377.417,38.079L424.896,38.079L424.896,51.726Z" style="fill:white;fill-rule:nonzero;"/>
            <path d="M481.23,119.852L469.22,119.852L469.22,84.806L445.801,84.806L445.801,119.852L433.791,119.852L433.791,38.079L445.801,38.079L445.801,71.215L469.22,71.215L469.22,38.079L481.23,38.079L481.23,119.852Z" style="fill:white;fill-rule:nonzero;"/>
            <path d="M528.837,84.413L505.778,84.413L505.778,106.317L532.841,106.317L532.841,119.852L493.769,119.852L493.769,38.079L532.761,38.079L532.761,51.726L505.778,51.726L505.778,71.215L528.837,71.215L528.837,84.413Z" style="fill:white;fill-rule:nonzero;"/>
            <path d="M424.896,169.624L407.041,169.624L407.041,237.75L395.031,237.75L395.031,169.624L377.417,169.624L377.417,155.976L424.896,155.976L424.896,169.624Z" style="fill:white;fill-rule:nonzero;"/>
            <path d="M455.369,207.815L445.801,207.815L445.801,237.75L433.791,237.75L433.791,155.976L455.449,155.976C462.335,155.976 467.646,158.129 471.382,162.435C475.118,166.741 476.987,172.825 476.987,180.688C476.987,186.267 476.126,190.919 474.405,194.645C472.683,198.37 470.074,201.337 466.578,203.546L479.189,236.963L479.189,237.75L466.298,237.75L455.369,207.815ZM445.801,194.167L455.489,194.167C458.505,194.167 460.84,193.091 462.495,190.938C464.149,188.785 464.977,185.818 464.977,182.036C464.977,178.179 464.196,175.147 462.635,172.937C461.074,170.728 458.678,169.624 455.449,169.624L445.801,169.624L445.801,194.167Z" style="fill:white;fill-rule:nonzero;"/>
            <path d="M532.28,155.976L532.28,209.837C532.28,218.785 530.285,225.862 526.295,231.066C522.305,236.271 516.854,238.873 509.942,238.873C503.136,238.873 497.732,236.346 493.729,231.291C489.725,226.236 487.684,219.291 487.603,210.454L487.603,155.976L499.613,155.976L499.613,209.949C499.613,215.303 500.527,219.207 502.356,221.659C504.184,224.111 506.713,225.338 509.942,225.338C516.694,225.338 520.124,220.358 520.23,210.398L520.23,155.976L532.28,155.976Z" style="fill:white;fill-rule:nonzero;"/>
            <path d="M588.054,169.624L570.2,169.624L570.2,237.75L558.19,237.75L558.19,169.624L540.575,169.624L540.575,155.976L588.054,155.976L588.054,169.624Z" style="fill:white;fill-rule:nonzero;"/>
            <path d="M644.389,237.75L632.379,237.75L632.379,202.704L608.959,202.704L608.959,237.75L596.95,237.75L596.95,155.976L608.959,155.976L608.959,189.112L632.379,189.112L632.379,155.976L644.389,155.976L644.389,237.75Z" style="fill:white;fill-rule:nonzero;"/>
            <rect x="680.154" y="155.976" width="12.01" height="81.774" style="fill:white;fill-rule:nonzero;"/>
            <path d="M735.568,216.295C735.568,213.113 734.767,210.67 733.166,208.966C731.565,207.263 728.682,205.465 724.519,203.574C720.355,201.684 717.059,199.821 714.631,197.986C708.012,192.969 704.702,186.211 704.702,177.711C704.702,173.293 705.59,169.352 707.365,165.889C709.139,162.426 711.688,159.72 715.011,157.773C718.334,155.826 722.063,154.853 726.2,154.853C730.364,154.853 734.073,155.911 737.329,158.026C740.585,160.142 743.114,163.128 744.916,166.984C746.717,170.841 747.618,175.221 747.618,180.126L735.608,180.126C735.608,176.382 734.767,173.471 733.086,171.393C731.404,169.315 729.042,168.276 726,168.276C723.064,168.276 720.782,169.146 719.154,170.888C717.526,172.629 716.712,174.922 716.712,177.768C716.712,180.426 717.666,182.654 719.575,184.451C721.483,186.248 724.292,187.933 728.002,189.506C734.834,192.389 739.811,195.964 742.934,200.233C746.057,204.501 747.618,209.818 747.618,216.183C747.618,223.26 745.71,228.81 741.893,232.835C738.077,236.86 732.939,238.873 726.48,238.873C721.997,238.873 717.913,237.722 714.23,235.419C710.547,233.116 707.738,229.962 705.803,225.955C703.868,221.949 702.901,217.306 702.901,212.027L714.951,212.027C714.951,221.051 718.794,225.562 726.48,225.562C729.336,225.562 731.565,224.748 733.166,223.119C734.767,221.491 735.568,219.216 735.568,216.295Z" style="fill:white;fill-rule:nonzero;"/>
            <path d="M428.899,316.614C428.899,324.664 427.885,331.722 425.857,337.787C423.828,343.853 420.926,348.533 417.149,351.828C413.373,355.123 409.043,356.771 404.159,356.771C399.328,356.771 395.018,355.142 391.228,351.884C387.438,348.627 384.502,343.975 382.421,337.928C380.339,331.881 379.285,324.926 379.258,317.063L379.258,313.02C379.258,304.97 380.292,297.884 382.361,291.762C384.429,285.64 387.351,280.941 391.128,277.665C394.904,274.389 399.221,272.751 404.079,272.751C408.936,272.751 413.253,274.389 417.029,277.665C420.806,280.941 423.728,285.64 425.797,291.762C427.865,297.884 428.899,304.951 428.899,312.963L428.899,316.614ZM416.729,312.907C416.729,304.333 415.635,297.818 413.446,293.362C411.258,288.907 408.135,286.679 404.079,286.679C400.049,286.679 396.939,288.879 394.751,293.278C392.562,297.678 391.455,304.127 391.428,312.626L391.428,316.614C391.428,324.964 392.522,331.441 394.711,336.046C396.899,340.652 400.049,342.955 404.159,342.955C408.189,342.955 411.285,340.736 413.446,336.299C415.608,331.862 416.702,325.394 416.729,316.895L416.729,312.907Z" style="fill:white;fill-rule:nonzero;"/>
            <path d="M483.792,273.874L483.792,327.734C483.792,336.683 481.797,343.76 477.807,348.964C473.817,354.168 468.366,356.771 461.454,356.771C454.648,356.771 449.244,354.243 445.241,349.189C441.237,344.134 439.196,337.188 439.115,328.352L439.115,273.874L451.125,273.874L451.125,327.847C451.125,333.201 452.039,337.104 453.868,339.557C455.696,342.009 458.225,343.235 461.454,343.235C468.206,343.235 471.636,338.256 471.742,328.296L471.742,273.874L483.792,273.874Z" style="fill:white;fill-rule:nonzero;"/>
            <path d="M539.566,287.521L521.712,287.521L521.712,355.647L509.702,355.647L509.702,287.521L492.087,287.521L492.087,273.874L539.566,273.874L539.566,287.521Z" style="fill:white;fill-rule:nonzero;"/>
            <path d="M610,287.521L592.146,287.521L592.146,355.647L580.136,355.647L580.136,287.521L562.521,287.521L562.521,273.874L610,273.874L610,287.521Z" style="fill:white;fill-rule:nonzero;"/>
            <path d="M666.335,355.647L654.325,355.647L654.325,320.602L630.906,320.602L630.906,355.647L618.896,355.647L618.896,273.874L630.906,273.874L630.906,307.01L654.325,307.01L654.325,273.874L666.335,273.874L666.335,355.647Z" style="fill:white;fill-rule:nonzero;"/>
            <path d="M713.942,320.208L690.883,320.208L690.883,342.112L717.945,342.112L717.945,355.647L678.873,355.647L678.873,273.874L717.865,273.874L717.865,287.521L690.883,287.521L690.883,307.01L713.942,307.01L713.942,320.208Z" style="fill:white;fill-rule:nonzero;"/>
            <path d="M748.619,325.712L739.051,325.712L739.051,355.647L727.041,355.647L727.041,273.874L748.699,273.874C755.584,273.874 760.895,276.027 764.632,280.333C768.368,284.638 770.236,290.723 770.236,298.586C770.236,304.165 769.376,308.817 767.654,312.542C765.933,316.268 763.324,319.235 759.828,321.444L772.438,354.861L772.438,355.647L759.548,355.647L748.619,325.712ZM739.051,312.065L748.739,312.065C751.755,312.065 754.09,310.988 755.744,308.835C757.399,306.682 758.227,303.715 758.227,299.934C758.227,296.077 757.446,293.044 755.885,290.835C754.323,288.626 751.928,287.521 748.699,287.521L739.051,287.521L739.051,312.065Z" style="fill:white;fill-rule:nonzero;"/>
            <path d="M816.483,320.208L793.424,320.208L793.424,342.112L820.486,342.112L820.486,355.647L781.414,355.647L781.414,273.874L820.406,273.874L820.406,287.521L793.424,287.521L793.424,307.01L816.483,307.01L816.483,320.208Z" style="fill:white;fill-rule:nonzero;"/>
        </g>
        <g transform="matrix(0.975758,0,0,0.285702,12.2692,274.776)">
            <path d="M404.607,119.131L386.293,119.131L386.293,170.28L407.567,170.28L407.567,185.842L380.72,185.842L380.72,41.516L407.277,41.516L407.277,57.177L386.293,57.177L386.293,103.568L404.607,103.568L404.607,119.131Z" style="fill:white;fill-rule:nonzero;"/>
            <path d="M428.842,95.043C428.029,94.581 427.149,94.349 426.201,94.349C422.679,94.349 420.29,99.471 419.032,109.714L419.032,185.842L413.663,185.842L413.663,78.588L418.887,78.588L418.974,90.979C420.735,81.397 423.231,76.606 426.462,76.606C427.507,76.606 428.3,77.069 428.842,77.994L428.842,95.043Z" style="fill:white;fill-rule:nonzero;"/>
            <path d="M439.61,185.842L434.24,185.842L434.24,78.588L439.61,78.588L439.61,185.842ZM433.805,50.139C433.805,47.166 434.071,44.655 434.603,42.606C435.135,40.557 435.924,39.533 436.969,39.533C438.014,39.533 438.807,40.557 439.349,42.606C439.89,44.655 440.161,47.166 440.161,50.139C440.161,53.113 439.89,55.591 439.349,57.574C438.807,59.556 438.014,60.548 436.969,60.548C435.924,60.548 435.135,59.556 434.603,57.574C434.071,55.591 433.805,53.113 433.805,50.139Z" style="fill:white;fill-rule:nonzero;"/>
            <path d="M456.966,136.18L453.599,148.175L453.599,185.842L448.23,185.842L448.23,33.586L453.599,33.586L453.599,125.673L456.473,113.877L466.254,78.588L472.784,78.588L460.565,123.393L474.206,185.842L467.908,185.842L456.966,136.18Z" style="fill:white;fill-rule:nonzero;"/>
            <path d="M481.608,44.588L480.998,81.067L477.254,81.067L477.283,33.586L481.608,33.586L481.608,44.588Z" style="fill:white;fill-rule:nonzero;"/>
            <path d="M504.653,157.393C504.653,152.437 504.106,148.588 503.013,145.845C501.919,143.103 500.014,140.74 497.295,138.758C494.576,136.775 492.419,134.396 490.823,131.621C489.226,128.845 488.046,125.541 487.282,121.708C486.517,117.875 486.135,113.315 486.135,108.029C486.135,99.24 487.224,91.805 489.4,85.726C491.577,79.646 494.359,76.606 497.745,76.606C501.305,76.606 504.193,79.745 506.408,86.023C508.624,92.301 509.732,100.33 509.732,110.11L504.333,110.11C504.333,105.088 503.709,100.76 502.461,97.125C501.213,93.49 499.641,91.673 497.745,91.673C495.791,91.673 494.262,93.127 493.159,96.035C492.056,98.942 491.505,102.742 491.505,107.434C491.505,111.862 492.017,115.199 493.043,117.446C494.068,119.693 495.921,121.84 498.601,123.889C501.281,125.937 503.453,128.383 505.117,131.224C506.781,134.066 508.014,137.486 508.817,141.484C509.62,145.482 510.022,150.355 510.022,156.105C510.022,165.687 508.9,173.369 506.655,179.151C504.411,184.934 501.499,187.825 497.919,187.825C495.404,187.825 493.178,186.305 491.243,183.265C489.309,180.225 487.794,175.979 486.701,170.527C485.608,165.075 485.061,159.178 485.061,152.833L490.431,152.833C490.528,158.979 491.248,163.853 492.593,167.454C493.938,171.056 495.713,172.857 497.919,172.857C499.951,172.857 501.581,171.453 502.809,168.644C504.038,165.835 504.653,162.085 504.653,157.393Z" style="fill:white;fill-rule:nonzero;"/>
            <path d="M541.687,140.344L542.5,159.376L543.69,142.227L552.049,41.516L556.75,41.516L564.906,142.227L566.067,159.673L566.967,140.245L573.526,41.516L579.128,41.516L568.882,185.842L563.803,185.842L555.096,80.67L554.429,69.667L553.761,80.67L544.735,185.842L539.655,185.842L529.439,41.516L535.012,41.516L541.687,140.344Z" style="fill:white;fill-rule:nonzero;"/>
            <path d="M596.6,187.825C592.343,187.825 588.88,183.05 586.21,173.501C583.54,163.952 582.204,151.181 582.204,135.189L582.204,131.819C582.204,121.179 582.799,111.68 583.989,103.32C585.179,94.961 586.843,88.418 588.982,83.693C591.12,78.968 593.437,76.606 595.933,76.606C600.015,76.606 603.189,81.199 605.453,90.384C607.716,99.57 608.848,112.721 608.848,129.836L608.848,137.469L587.574,137.469C587.651,148.042 588.556,156.584 590.288,163.093C592.019,169.602 594.22,172.857 596.891,172.857C598.787,172.857 600.393,171.535 601.709,168.892C603.024,166.248 604.176,162.746 605.162,158.385L608.442,167.108C605.811,180.919 601.863,187.825 596.6,187.825ZM595.933,91.673C593.766,91.673 591.947,94.366 590.476,99.752C589.006,105.138 588.096,112.688 587.748,122.402L603.479,122.402L603.479,121.014C603.324,111.696 602.589,104.477 601.273,99.355C599.957,94.234 598.177,91.673 595.933,91.673Z" style="fill:white;fill-rule:nonzero;"/>
            <path d="M641.645,133.405C641.645,149.794 640.543,162.961 638.337,172.906C636.131,182.852 633.17,187.825 629.455,187.825C625.489,187.825 622.422,183.034 620.255,173.452L619.994,185.842L615.06,185.842L615.06,33.586L620.429,33.586L620.429,90.384C622.596,81.199 625.586,76.606 629.397,76.606C633.209,76.606 636.203,81.529 638.38,91.376C640.557,101.222 641.645,114.703 641.645,131.819L641.645,133.405ZM636.276,131.323C636.276,118.833 635.57,109.185 634.157,102.379C632.745,95.572 630.713,92.169 628.062,92.169C624.521,92.169 621.977,97.786 620.429,109.02L620.429,155.411C622.074,166.645 624.637,172.262 628.12,172.262C630.694,172.262 632.696,168.859 634.128,162.052C635.56,155.246 636.276,145.003 636.276,131.323Z" style="fill:white;fill-rule:nonzero;"/>
            <rect x="648.872" y="33.586" width="5.369" height="152.257" style="fill:white;fill-rule:nonzero;"/>
            <path d="M661.411,131.224C661.411,120.717 662.015,111.267 663.225,102.874C664.434,94.482 666.117,88.005 668.275,83.446C670.432,78.886 672.895,76.606 675.661,76.606C679.938,76.606 683.396,81.661 686.038,91.772C688.679,101.883 689.999,115.331 689.999,132.116L689.999,133.405C689.999,143.846 689.414,153.213 688.243,161.507C687.073,169.8 685.399,176.26 683.222,180.886C681.045,185.512 678.545,187.825 675.72,187.825C671.463,187.825 668.014,182.769 665.372,172.659C662.731,162.548 661.411,149.166 661.411,132.513L661.411,131.224ZM666.809,133.405C666.809,145.3 667.617,154.849 669.233,162.052C670.848,169.255 673.011,172.857 675.72,172.857C678.448,172.857 680.615,169.206 682.221,161.903C683.827,154.601 684.63,144.375 684.63,131.224C684.63,119.461 683.812,109.929 682.177,102.626C680.542,95.324 678.37,91.673 675.661,91.673C673.011,91.673 670.873,95.275 669.247,102.478C667.622,109.681 666.809,119.99 666.809,133.405Z" style="fill:white;fill-rule:nonzero;"/>
            <path d="M695.456,131.323C695.456,114.604 696.588,101.305 698.852,91.425C701.115,81.546 704.115,76.606 707.849,76.606C711.68,76.606 714.67,81.232 716.817,90.484L717.079,78.588L721.984,78.588L721.984,183.265C721.984,197.143 720.779,208.079 718.37,216.076C715.961,224.072 712.725,228.07 708.662,228.07C706.398,228.07 704.182,226.418 702.015,223.113C699.848,219.809 698.194,215.283 697.052,209.533L699.838,198.53C702.141,208.245 704.956,213.102 708.284,213.102C710.897,213.102 712.933,210.591 714.394,205.568C715.855,200.546 716.585,193.475 716.585,184.355L716.585,175.137C714.437,183.595 711.506,187.825 707.791,187.825C704.115,187.825 701.14,182.769 698.866,172.659C696.593,162.548 695.456,148.769 695.456,131.323ZM700.854,133.405C700.854,145.498 701.58,154.998 703.031,161.903C704.482,168.809 706.514,172.262 709.126,172.262C712.512,172.262 714.999,167.008 716.585,156.501L716.585,107.533C714.941,97.29 712.473,92.169 709.184,92.169C706.572,92.169 704.531,95.638 703.06,102.577C701.59,109.516 700.854,119.792 700.854,133.405Z" style="fill:white;fill-rule:nonzero;"/>
            <path d="M766.913,137.37L772.776,137.37L772.776,152.338L766.913,152.338L766.913,185.842L761.514,185.842L761.514,152.338L742.271,152.338L742.271,141.533L761.195,41.516L766.913,41.516L766.913,137.37ZM748.366,137.37L761.514,137.37L761.514,66.594L760.876,70.559L748.366,137.37Z" style="fill:white;fill-rule:nonzero;"/>
            <path d="M778.29,176.227C778.29,173.055 778.566,170.412 779.117,168.297C779.669,166.182 780.496,165.125 781.599,165.125C782.702,165.125 783.539,166.182 784.109,168.297C784.68,170.412 784.966,173.055 784.966,176.227C784.966,179.267 784.68,181.811 784.109,183.86C783.539,185.908 782.702,186.933 781.599,186.933C780.496,186.933 779.669,185.908 779.117,183.86C778.566,181.811 778.29,179.267 778.29,176.227Z" style="fill:white;fill-rule:nonzero;"/>
            <path d="M819.765,124.285C819.765,145.763 818.691,161.722 816.544,172.163C814.396,182.604 811.039,187.825 806.472,187.825C801.964,187.825 798.626,182.72 796.459,172.51C794.292,162.3 793.17,147.051 793.092,126.763L793.092,102.279C793.092,81.067 794.166,65.306 796.314,54.997C798.462,44.688 801.828,39.533 806.414,39.533C810.961,39.533 814.309,44.506 816.457,54.451C818.604,64.397 819.707,79.745 819.765,100.495L819.765,124.285ZM814.396,99.207C814.396,83.677 813.757,72.36 812.48,65.256C811.203,58.152 809.181,54.6 806.414,54.6C803.667,54.6 801.664,58.136 800.406,65.207C799.149,72.278 798.5,83.148 798.462,97.819L798.462,127.16C798.462,142.756 799.124,154.271 800.45,161.705C801.775,169.14 803.783,172.857 806.472,172.857C809.123,172.857 811.092,169.354 812.379,162.35C813.665,155.345 814.338,144.309 814.396,129.242L814.396,99.207Z" style="fill:white;fill-rule:nonzero;"/>
        </g>
    </g>
</svg>
