<?xml version="1.0" encoding="UTF-8" standalone="no"?>
<!DOCTYPE svg PUBLIC "-//W3C//DTD SVG 1.1//EN" "http://www.w3.org/Graphics/SVG/1.1/DTD/svg11.dtd">
<svg width="100%" height="100%" viewBox="0 0 129 38" version="1.1" xmlns="http://www.w3.org/2000/svg" xmlns:xlink="http://www.w3.org/1999/xlink" xml:space="preserve" xmlns:serif="http://www.serif.com/" style="fill-rule:evenodd;clip-rule:evenodd;stroke-linejoin:round;stroke-miterlimit:2;">
    <g transform="matrix(1,0,0,1,-9.175e-05,2.25e-05)">
        <g transform="matrix(1,0,0,-1,-21.3999,55.616)">
            <path d="M110.497,31.383C105.031,31.383 100.658,35.756 100.658,41.222C100.658,46.688 105.031,51.061 110.497,51.061C115.964,51.061 120.336,46.688 120.336,41.222C120.336,35.756 115.781,31.383 110.497,31.383M135.824,31.383C131.815,31.383 128.9,33.023 127.442,36.12C126.167,38.671 126.167,41.222 126.167,41.222C126.167,41.222 126.167,43.773 127.442,46.324C129.082,49.421 131.815,51.061 135.824,51.061C139.832,51.061 142.747,49.603 144.387,46.506C145.663,44.137 145.663,41.586 145.663,41.586C145.48,41.04 145.48,31.383 135.824,31.383M46.544,40.311L46.544,26.646L51.281,26.646L51.281,40.311C51.281,40.311 51.281,43.044 52.557,45.595C54.197,48.875 57.294,50.514 61.485,50.514C65.675,50.514 68.773,48.875 70.413,45.595C71.688,43.044 71.688,40.311 71.688,40.311L71.688,26.646L76.425,26.646L76.425,30.472C79.158,28.103 82.438,26.828 86.082,26.828C91.002,26.828 95.557,29.379 98.29,33.387C101.023,29.379 105.578,26.828 110.315,26.828C115.599,26.828 120.336,29.743 122.887,34.298C124.527,31.019 128.171,27.01 135.642,27.01C139.65,27.01 142.93,28.286 145.481,30.472L145.481,26.281C145.481,25.37 145.116,22.637 141.836,22.637L122.705,22.637L122.705,17.9L141.836,17.9C146.209,17.9 148.214,20.269 149.307,22.273C150.218,24.277 150.4,26.099 150.4,26.281L150.4,54.158L145.663,54.158L145.663,52.154C143.112,54.341 139.832,55.434 135.824,55.434C128.353,55.434 124.892,51.425 123.069,48.146C120.519,52.701 115.781,55.616 110.497,55.616C105.578,55.616 101.023,53.065 98.472,49.057C96.468,51.972 93.553,54.341 90.091,55.252L89.544,55.434L89.544,48.51C88.997,48.328 81.892,44.684 81.892,44.684L81.892,39.947L89.544,43.955L89.544,42.68L81.892,38.671L81.892,33.934L92.277,39.582L92.277,48.692C94.464,46.87 95.921,44.137 95.921,41.404C95.921,36.12 91.731,31.93 86.447,31.93C81.163,31.93 76.972,36.12 76.972,41.404C76.972,46.688 81.163,50.879 86.447,50.879C87.175,50.879 87.722,50.879 88.451,50.697L88.451,55.434C87.722,55.434 87.175,55.616 86.447,55.616C81.527,55.616 76.972,53.065 74.239,48.875C72.235,51.972 68.591,55.434 61.667,55.434C54.561,55.434 50.917,51.972 49.095,48.875C47.273,52.154 43.447,55.616 36.523,55.616C32.332,55.616 28.87,54.523 26.137,51.972L26.137,53.976L21.4,53.976L21.4,26.646L26.137,26.646L26.137,40.311C26.137,40.311 26.137,43.044 27.413,45.595C29.053,48.875 32.15,50.514 36.341,50.514C40.531,50.514 43.629,48.875 45.269,45.595C46.362,43.044 46.544,40.311 46.544,40.311" style="fill:white;fill-rule:nonzero;"/>
        </g>
    </g>
</svg>
